HIERARCHY
ROOT Hips
{
	OFFSET -0.179506 -22.333345 2.821913
	CHANNELS 6 Xposition Yposition Zposition Zrotation Yrotation Xrotation 
	JOINT LeftUpLeg
	{
		OFFSET 6.951974 -9.140623 -0.681533
		CHANNELS 3 Zrotation Yrotation Xrotation
		JOINT LeftLeg
		{
			OFFSET 3.427654 -37.519855 -0.449580
			CHANNELS 3 Zrotation Yrotation Xrotation
			JOINT LeftFoot
			{
				OFFSET -1.359570 -39.796059 -4.369333
				CHANNELS 3 Zrotation Yrotation Xrotation
				JOINT LeftToe
				{
					OFFSET 2.635814 -5.579078 11.928840
					CHANNELS 3 Zrotation Yrotation Xrotation
					End Site
					{
						OFFSET 0.000000 0.000000 0.000000
					}
				}
			}
		}
	}
	JOINT RightUpLeg
	{
		OFFSET -6.767048 -9.052170 -0.431982
		CHANNELS 3 Zrotation Yrotation Xrotation
		JOINT RightLeg
		{
			OFFSET -3.829005 -38.256897 -0.885003
			CHANNELS 3 Zrotation Yrotation Xrotation
			JOINT RightFoot
			{
				OFFSET 1.577377 -39.841461 -4.231180
				CHANNELS 3 Zrotation Yrotation Xrotation
				JOINT RightToe
				{
					OFFSET -2.537174 -4.814398 12.334795
					CHANNELS 3 Zrotation Yrotation Xrotation
					End Site
					{
						OFFSET 0.000000 0.000000 0.000000
					}
				}
			}
		}
	}
	JOINT Spine
	{
		OFFSET -0.253288 10.896323 -2.669631
		CHANNELS 3 Zrotation Yrotation Xrotation
		JOINT Spine1
		{
			OFFSET 0.548704 13.518043 0.109247
			CHANNELS 3 Zrotation Yrotation Xrotation
			JOINT Spine2
			{
				OFFSET 0.145701 5.292222 2.542457
				CHANNELS 3 Zrotation Yrotation Xrotation
				JOINT Neck
				{
					OFFSET -0.277840 21.387037 -4.285703
					CHANNELS 3 Zrotation Yrotation Xrotation
					JOINT Head
					{
						OFFSET 0.515184 6.496960 5.134897
						CHANNELS 3 Zrotation Yrotation Xrotation
						End Site
						{
							OFFSET 0.000000 0.000000 0.000000
						}
					}
				}
				JOINT LeftShoulder
				{
					OFFSET 7.884473 12.174932 -3.408961
					CHANNELS 3 Zrotation Yrotation Xrotation
					JOINT LeftArm
					{
						OFFSET 9.097692 3.046888 -0.886815
						CHANNELS 3 Zrotation Yrotation Xrotation
						JOINT LeftForeArm
						{
							OFFSET 25.961220 -1.277207 -2.745643
							CHANNELS 3 Zrotation Yrotation Xrotation
							JOINT LeftHand
							{
								OFFSET 24.923361 0.898606 -0.117091
								CHANNELS 3 Zrotation Yrotation Xrotation
								End Site
								{
									OFFSET 0.000000 0.000000 0.000000
								}
							}
						}
					}
				}
				JOINT RightShoulder
				{
					OFFSET -8.175920 11.883285 -3.861528
					CHANNELS 3 Zrotation Yrotation Xrotation
					JOINT RightArm
					{
						OFFSET -9.601238 3.255117 -0.914307
						CHANNELS 3 Zrotation Yrotation Xrotation
						JOINT RightForeArm
						{
							OFFSET -25.374195 -1.332924 -2.140099
							CHANNELS 3 Zrotation Yrotation Xrotation
							JOINT RightHand
							{
								OFFSET -25.529810 0.777228 -0.555919
								CHANNELS 3 Zrotation Yrotation Xrotation
								End Site
								{
									OFFSET 0.000000 0.000000 0.000000
								}
							}
						}
					}
				}
			}
		}
	}
}
MOTION
Frames: 17
Frame Time: 0.033333
347.573395 -319.792328 88.741592 -126.862013 0.584504 87.211232 0.967835 4.086558 7.293023 -2.993075 -1.263448 -3.725433 0.644994 10.091399 -4.028176 nan nan nan -2.997662 -4.258462 5.393407 2.682391 -3.347660 -1.049358 1.918785 -7.267802 -9.613388 nan nan nan 0.248148 1.613153 5.528101 0.909515 -2.470918 5.319453 0.734072 -0.809306 -3.251070 0.739221 0.598546 1.719548 1.983609 -0.449233 7.074140 -30.562248 0.181582 2.980016 -53.856801 -4.924392 12.964617 4.473027 -24.067881 6.604798 -7.063660 -12.385936 1.397713 30.293269 5.033866 4.202012 54.077408 4.276053 13.840733 -9.990667 22.796679 -4.606044 5.151573 9.632035 -1.930298 
347.562347 -319.819336 88.734871 -126.824403 0.566196 87.369384 0.941585 4.048622 7.043991 -3.082569 -1.125075 -3.551776 0.696639 10.167844 -4.088040 nan nan nan -2.996887 -4.279410 5.253599 2.707379 -3.348663 -1.073389 2.158533 -7.324559 -9.308990 nan nan nan 0.217526 1.703411 5.391387 0.869157 -2.400768 5.118439 0.709378 -0.856202 -3.080006 0.934978 0.705797 1.391192 1.992733 -0.323098 7.530292 -30.338813 0.034460 3.190724 -53.791604 -4.989323 13.132477 4.040639 -24.211514 7.180137 -6.905942 -12.281513 1.264965 30.072070 5.010066 4.266459 54.465329 4.290252 13.978150 -10.075111 22.932555 -4.536762 5.050499 9.517912 -2.422656 
347.561188 -319.829285 88.742111 -126.815779 0.543414 87.459842 0.915110 3.963202 6.893265 -3.100254 -1.059345 -3.451356 0.732907 10.162686 -4.086615 nan nan nan -3.011996 -4.263633 5.177800 2.723222 -3.380880 -1.061480 2.257182 -7.332744 -9.112784 nan nan nan 0.187970 1.773402 5.336567 0.842548 -2.353635 4.998247 0.732107 -0.878715 -2.974511 0.965784 0.849603 1.272686 1.995900 -0.198612 7.708217 -30.182826 -0.087498 3.264502 -54.014082 -5.232797 13.063654 3.719398 -24.012930 6.933257 -6.900360 -12.299599 0.577194 29.887684 5.037142 4.321145 54.780524 4.395790 14.055307 -10.115713 22.899642 -4.691102 5.089885 9.579293 -2.886843 
347.541443 -319.838043 88.747734 -126.814996 0.464547 87.512063 0.742249 3.654376 6.878799 -3.046282 -1.306868 -3.382665 0.788847 10.028654 -4.013016 nan nan nan -3.101880 -4.144589 5.178959 2.754280 -3.440089 -1.129880 2.209671 -7.335740 -9.116206 nan nan nan 0.099737 1.859924 5.145618 0.830660 -2.387129 5.214878 0.763354 -0.866868 -2.999180 0.886547 1.096156 1.351062 2.174635 -0.169809 7.567948 -29.998584 -0.264023 3.195844 -54.535965 -5.650178 12.745077 3.500132 -23.314981 5.958428 -7.896758 -12.703625 -0.049293 29.684444 5.221597 4.422743 55.011524 4.269395 14.032720 -10.650440 22.319598 -4.818705 6.064143 10.338251 -2.359990 
347.491974 -319.835114 88.732552 -126.882247 0.265594 87.386376 0.603443 4.061333 7.122630 -2.640827 -0.590448 -3.854611 2.003600 12.547056 -11.747854 nan nan nan -3.302234 -4.187211 5.162675 2.595374 -3.130148 -0.805700 2.874259 -7.405318 -9.808898 nan nan nan -0.271295 1.916108 5.495189 0.966516 -2.398163 5.053971 0.766798 -0.846117 -3.082131 1.011758 1.203734 1.408711 2.149842 0.134830 7.618848 -29.559987 -0.242436 2.964252 -54.897188 -5.405581 12.897553 3.300963 -23.561712 6.183732 -7.685996 -12.575179 -0.336920 29.269432 5.372861 4.373529 55.534138 4.278687 14.010804 -10.575665 22.184283 -4.781757 5.933512 10.562314 -3.279932 
347.439972 -319.833496 88.700066 -126.874208 0.314328 87.412757 0.686797 4.084162 7.061423 -2.676769 -0.550445 -3.782452 1.959074 12.501868 -11.460003 nan nan nan -3.273603 -4.193733 5.162156 2.611398 -3.145270 -0.834598 2.889081 -7.407056 -9.806450 nan nan nan -0.188292 1.894048 5.558576 0.915964 -2.352145 4.927402 0.761598 -0.810620 -2.985200 1.055224 1.371297 1.345668 2.158551 0.327734 7.626281 -29.443576 -0.215052 2.978920 -54.950825 -5.338812 13.016626 3.540216 -23.783333 6.680412 -7.527502 -12.494922 -0.166348 29.136376 5.340085 4.390690 55.748023 4.312315 14.031973 -10.651630 22.286677 -4.700024 5.797745 10.505773 -3.573733 
347.395813 -319.817535 88.683685 -126.805377 0.354883 87.429895 0.740530 4.069043 7.012982 -2.675511 -0.536210 -3.712529 1.920354 12.461276 -11.443484 nan nan nan -3.235773 -4.254441 5.191028 2.653981 -3.218017 -0.894937 2.857654 -7.411614 -9.850050 nan nan nan -0.156125 1.878063 5.614901 0.884587 -2.334401 4.781341 0.769298 -0.826806 -2.872973 1.109912 1.571428 1.217210 2.165780 0.548395 7.769964 -29.434692 -0.203170 2.963681 -55.150558 -5.410067 12.864638 3.437851 -23.620996 6.176587 -6.690646 -12.486569 -0.880551 29.086504 5.293772 4.392910 55.845537 4.421999 14.088180 -10.567117 22.238056 -4.745999 5.432681 10.516557 -3.748308 
347.332703 -319.786224 88.667633 -126.715125 0.349609 87.457134 0.781074 4.064509 6.957929 -2.751843 -0.575614 -3.606761 1.900832 12.444711 -11.427575 nan nan nan -3.256001 -4.279438 5.264341 2.648853 -3.238934 -0.969516 2.878682 -7.489908 -9.850989 nan nan nan -0.156369 1.875536 5.582765 0.881305 -2.358368 4.817193 0.759767 -0.802160 -2.881638 1.126633 1.718702 1.232808 2.154491 0.625744 7.809916 -29.374359 -0.154362 2.989077 -54.885871 -5.251742 13.087545 3.599772 -24.000147 7.237580 -7.132774 -12.428831 0.001895 29.148078 5.243698 4.392120 55.819632 4.365240 14.071049 -10.659484 22.424464 -4.391030 5.620356 10.469324 -3.526040 
347.282837 -319.780182 88.618584 -126.661501 0.192871 87.568184 0.614016 3.987997 6.803817 -2.795608 -0.682892 -3.444439 1.948563 12.494640 -11.775502 nan nan nan -3.375259 -4.252688 5.299508 2.440183 -3.136006 -1.383723 2.862503 -7.542129 -10.144527 nan nan nan -0.291595 1.937216 5.410745 0.858188 -2.396891 4.958151 0.727087 -0.787849 -2.965641 1.113754 1.745885 1.204468 2.137932 0.707011 7.887176 -29.201041 -0.066633 2.889367 -54.788745 -5.128398 13.365379 3.591928 -24.278258 7.678240 -7.066955 -12.316936 0.417104 29.106142 5.129533 4.312899 55.957316 4.287276 14.077210 -10.776092 22.561391 -4.383062 5.669802 10.507626 -3.334800 
347.225433 -319.780487 88.609306 -126.610850 0.180149 87.539814 0.514232 3.989413 6.757323 -2.768338 -0.605229 -3.273553 2.004872 12.607838 -11.993541 nan nan nan -3.365461 -4.183972 5.239870 2.333083 -3.160355 -1.152367 2.824607 -7.545773 -10.351311 nan nan nan -0.277449 1.913410 5.438006 0.853796 -2.414470 4.987820 0.705973 -0.775182 -2.973504 1.097123 1.808789 1.250929 2.161136 0.786750 7.842901 -29.198602 -0.128630 2.901045 -54.948420 -5.127382 13.289061 3.603806 -24.181224 7.371907 -7.359318 -12.443289 0.122471 29.037392 5.222935 4.342724 56.020366 4.251098 14.075497 -10.771215 22.579400 -4.506162 5.836119 10.644979 -3.520321 
347.152435 -319.797028 88.620445 -126.529070 0.152196 87.446519 0.398533 4.064028 6.786385 -2.715149 -0.677213 -3.122135 2.084477 12.681555 -12.108549 nan nan nan -3.248205 -4.105509 4.872201 1.990873 -3.280453 -0.261551 2.660520 -7.544176 -10.850287 nan nan nan -0.292095 1.821012 5.617844 0.852264 -2.397734 4.910052 0.667482 -0.748401 -2.999170 1.137895 1.792632 1.346650 2.184677 0.960891 7.841499 -29.273928 -0.216544 2.796797 -55.240745 -5.143301 13.130691 3.475971 -23.769762 6.114123 -6.633365 -12.394518 -0.901017 28.957265 5.308024 4.293357 56.173114 4.209715 14.140341 -10.641246 22.483802 -4.972596 5.434381 10.651675 -3.993256 
347.127106 -319.779022 88.616020 -126.539323 0.205463 87.418286 0.485314 4.114794 6.771437 -2.725427 -0.757341 -2.963300 2.069472 12.629057 -12.171483 nan nan nan -3.209864 -4.189320 4.913864 1.989673 -3.238636 -0.239724 2.608810 -7.513335 -10.945432 nan nan nan -0.207429 1.809693 5.785436 0.812799 -2.350730 4.812512 0.647958 -0.683673 -2.981665 1.219888 1.773921 1.365837 2.123017 1.099796 7.853265 -29.263204 -0.114181 2.731421 -54.930562 -4.969036 13.408741 3.560458 -24.294368 6.992694 -5.753504 -12.019862 -0.297071 28.921994 5.142711 4.250481 56.285686 4.223680 14.142195 -10.648325 22.684678 -4.753136 5.017456 10.350580 -4.101523 
347.075134 -319.821411 88.611336 -126.541743 0.202482 87.435617 0.411611 4.100297 6.681839 -2.730674 -0.682024 -2.775229 2.079842 12.656638 -12.261665 nan nan nan -3.270785 -4.253076 4.845617 2.067508 -3.486214 -0.190027 2.552948 -7.516626 -10.977065 nan nan nan -0.224439 1.854050 5.779367 0.876896 -2.386846 4.927040 0.646975 -0.662858 -3.038903 1.200032 1.955155 1.367429 2.205861 1.102958 7.843343 -29.451961 -0.185972 2.651321 -55.093829 -5.071929 13.131759 3.339138 -23.896533 6.274347 -6.494489 -12.310326 -0.649039 29.098360 5.271928 4.271949 55.902432 4.308379 14.026913 -10.656088 22.510650 -4.769760 5.731796 10.717442 -3.405545 
347.062073 -319.839142 88.605522 -126.629609 0.248681 87.483347 0.467521 4.185541 6.499549 -2.857169 -0.536260 -2.563926 2.038069 12.694146 -12.323117 nan nan nan -3.285577 -4.517985 4.637189 2.282565 -3.863164 -0.070958 2.502553 -7.760384 -10.897931 nan nan nan -0.120313 1.881632 5.921610 0.853658 -2.279265 4.736892 0.644926 -0.606817 -3.008357 1.222864 1.989389 1.310467 2.047678 1.199155 8.073559 -29.382560 -0.068592 2.606376 -54.669017 -4.957249 13.498963 3.152077 -24.415597 7.388059 -5.955385 -12.017335 -0.015714 29.079655 5.111060 4.247605 55.874747 4.330478 14.054525 -10.541028 22.692599 -4.514333 5.426075 10.532443 -3.599446 
347.059906 -319.862061 88.611671 -126.715844 0.288514 87.481476 0.492732 4.197412 6.383078 -2.913066 -0.423904 -2.372939 2.047807 12.750170 -12.368683 nan nan nan -3.303778 -4.598064 4.535946 2.306385 -3.995123 0.064268 2.448062 -7.889632 -10.783500 nan nan nan -0.029655 1.895505 6.057043 0.819478 -2.209359 4.652138 0.626908 -0.555575 -2.969175 1.244281 2.002438 1.246305 1.997460 1.258747 8.110447 -29.420753 -0.068626 2.597261 -54.501899 -4.997557 13.615623 3.095674 -24.542783 7.671311 -5.926457 -11.936677 0.104244 29.060160 5.127929 4.248955 55.912670 4.414564 14.071563 -10.565920 22.664299 -4.563096 5.386217 10.489708 -3.841538 
347.032288 -319.879120 88.617249 -126.765705 0.321986 87.472736 0.517190 4.197172 6.312330 -2.951838 -0.368002 -2.193304 2.061951 12.787724 -12.436065 nan nan nan -3.317664 -4.620993 4.501159 2.283463 -4.071201 0.128340 2.420242 -7.923462 -10.693797 nan nan nan 0.020981 1.902268 6.162136 0.811189 -2.178304 4.607529 0.619368 -0.517336 -2.954901 1.265596 2.017448 1.203312 2.017195 1.325155 8.093176 -29.448720 -0.086613 2.605963 -54.609086 -5.026758 13.573935 3.198504 -24.523690 7.526832 -5.881165 -11.961005 -0.078636 29.021310 5.199015 4.271918 55.930230 4.464712 14.085090 -10.564063 22.615972 -4.557929 5.429311 10.526658 -3.906915 
347.015930 -319.856201 88.586319 -126.766742 0.326854 87.486683 0.510989 4.188646 6.300245 -2.951729 -0.372423 -2.178924 2.067571 12.793736 -12.444572 nan nan nan -3.327715 -4.602156 4.501357 2.269181 -4.051544 0.137146 2.422863 -7.915879 -10.702065 nan nan nan 0.009074 1.908794 6.167090 0.802308 -2.176643 4.615990 0.607667 -0.514978 -2.954353 1.261478 2.023570 1.203416 2.026332 1.328535 8.091167 -29.458603 -0.092202 2.610433 -54.648197 -5.030311 13.564360 3.214207 -24.503491 7.488304 -5.927406 -11.987869 -0.108845 29.019835 5.214905 4.274185 55.930482 4.468874 14.086887 -10.563129 22.612178 -4.564533 5.452893 10.545024 -3.906309 
